<svg width="16" height="14" viewBox="0 0 16 14" fill="none" xmlns="http://www.w3.org/2000/svg">
<path d="M0.666672 0.666687L15.3333 15.3334" stroke="#7F7F7F" stroke-width="2" stroke-linecap="round" stroke-linejoin="round"/>
<path d="M11.96 10.96C10.8204 11.8286 9.43274 12.3099 8.00001 12.3333C3.33334 12.3333 0.666672 6.99998 0.666672 6.99998C1.49593 5.45457 2.6461 4.10438 4.04001 3.03998M6.60001 1.82664C7.05889 1.71923 7.52871 1.66554 8.00001 1.66664C12.6667 1.66664 15.3333 6.99998 15.3333 6.99998C14.9287 7.75705 14.446 8.4698 13.8933 9.12664M9.41334 8.41331C9.23024 8.60981 9.00944 8.76741 8.76411 8.87673C8.51878 8.98604 8.25394 9.04482 7.9854 9.04955C7.71686 9.05429 7.45011 9.00489 7.20108 8.9043C6.95204 8.80371 6.72582 8.654 6.5359 8.46408C6.34599 8.27416 6.19627 8.04794 6.09568 7.7989C5.99509 7.54987 5.94569 7.28312 5.95043 7.01458C5.95517 6.74604 6.01394 6.48121 6.12326 6.23587C6.23257 5.99054 6.39017 5.76974 6.58667 5.58664" stroke="#7F7F7F" stroke-width="2" stroke-linecap="round" stroke-linejoin="round"/>
</svg>
