<svg width="27" height="28" viewBox="0 0 27 28" fill="none" xmlns="http://www.w3.org/2000/svg">
<path d="M24.2179 11.6138C24.2179 11.3389 24.1087 11.0751 23.9142 10.8807C23.7198 10.6863 23.4561 10.577 23.1811 10.577C22.9061 10.577 22.6424 10.6863 22.448 10.8807C22.2535 11.0751 22.1443 11.3389 22.1443 11.6138H24.2179ZM4.86427 11.6138C4.86427 11.3389 4.75504 11.0751 4.5606 10.8807C4.36616 10.6863 4.10245 10.577 3.82747 10.577C3.55249 10.577 3.28878 10.6863 3.09434 10.8807C2.8999 11.0751 2.79067 11.3389 2.79067 11.6138H4.86427ZM25.2132 15.1113C25.3082 15.2132 25.4226 15.2949 25.5498 15.3516C25.677 15.4082 25.8143 15.4387 25.9535 15.4411C26.0927 15.4436 26.231 15.418 26.3601 15.3658C26.4892 15.3137 26.6065 15.2361 26.7049 15.1376C26.8034 15.0392 26.881 14.9219 26.9331 14.7928C26.9853 14.6637 27.0109 14.5254 27.0084 14.3862C27.006 14.247 26.9755 14.1097 26.9188 13.9825C26.8622 13.8553 26.7805 13.7409 26.6786 13.646L25.2132 15.1113ZM13.5043 1.93701L14.237 1.20434C14.0426 1.01018 13.779 0.901123 13.5043 0.901123C13.2295 0.901123 12.966 1.01018 12.7716 1.20434L13.5043 1.93701ZM0.329991 13.646C0.228126 13.7409 0.146423 13.8553 0.0897559 13.9825C0.0330885 14.1097 0.00261759 14.247 0.000161356 14.3862C-0.00229488 14.5254 0.0233136 14.6637 0.0754593 14.7928C0.127605 14.9219 0.205219 15.0392 0.303672 15.1376C0.402125 15.2361 0.5194 15.3137 0.6485 15.3658C0.7776 15.418 0.915881 15.4436 1.05509 15.4411C1.1943 15.4387 1.3316 15.4082 1.45878 15.3516C1.58596 15.2949 1.70042 15.2132 1.79534 15.1113L0.329991 13.646ZM6.59228 27.8571H20.4163V25.7835H6.59228V27.8571ZM24.2179 24.0555V11.6138H22.1443V24.0555H24.2179ZM4.86427 24.0555V11.6138H2.79067V24.0555H4.86427ZM26.6786 13.646L14.237 1.20434L12.7716 2.66969L25.2132 15.1113L26.6786 13.646ZM12.7716 1.20434L0.329991 13.646L1.79534 15.1113L14.237 2.66969L12.7716 1.20434ZM20.4163 27.8571C21.4246 27.8571 22.3915 27.4565 23.1045 26.7436C23.8174 26.0307 24.2179 25.0637 24.2179 24.0555H22.1443C22.1443 25.0093 21.3702 25.7835 20.4163 25.7835V27.8571ZM6.59228 25.7835C5.63842 25.7835 4.86427 25.0093 4.86427 24.0555H2.79067C2.79067 25.0637 3.19119 26.0307 3.90413 26.7436C4.61707 27.4565 5.58403 27.8571 6.59228 27.8571V25.7835Z" fill="#7F7F7F"/>
</svg>
