<svg width="30" height="30" viewBox="0 0 30 30" fill="none" xmlns="http://www.w3.org/2000/svg">
<path d="M28.4528 12.6318V14.7054C28.4528 21.222 28.4528 24.4804 26.4276 26.5042C24.4051 28.5294 21.1454 28.5294 14.6288 28.5294C8.11213 28.5294 4.85381 28.5294 2.82859 26.5042C0.804749 24.4817 0.804749 21.222 0.804749 14.7054C0.804749 8.18873 0.804749 4.93041 2.82859 2.90519C4.85519 0.881348 8.11213 0.881348 14.6288 0.881348H16.7024" stroke="#829DFF" stroke-width="1.4101" stroke-linecap="round"/>
<path d="M7.71667 17.4696L10.2009 14.4891C11.1851 13.3071 11.6773 12.7169 12.3242 12.7169C12.9726 12.7169 13.4647 13.3071 14.449 14.4891L14.8084 14.9204C15.7927 16.1024 16.2848 16.6926 16.9332 16.6926C17.5801 16.6926 18.0723 16.1024 19.0565 14.9204L21.5407 11.9399" stroke="#829DFF" stroke-width="1.4101" stroke-linecap="round"/>
<path d="M24.3056 9.17577C26.596 9.17577 28.4528 7.319 28.4528 5.02856C28.4528 2.73812 26.596 0.881348 24.3056 0.881348C22.0151 0.881348 20.1584 2.73812 20.1584 5.02856C20.1584 7.319 22.0151 9.17577 24.3056 9.17577Z" stroke="#829DFF" stroke-width="1.4101"/>
</svg>
