<svg width="25" height="25" viewBox="0 0 25 25" fill="none" xmlns="http://www.w3.org/2000/svg">
<path d="M1.88177 20.6732C1.88177 19.2066 2.46436 17.8001 3.50136 16.7631C4.53836 15.7261 5.94484 15.1436 7.41139 15.1436H18.4706C19.9372 15.1436 21.3436 15.7261 22.3806 16.7631C23.4176 17.8001 24.0002 19.2066 24.0002 20.6732C24.0002 21.4064 23.7089 22.1097 23.1904 22.6282C22.6719 23.1467 21.9687 23.438 21.2354 23.438H4.64658C3.91331 23.438 3.21007 23.1467 2.69157 22.6282C2.17307 22.1097 1.88177 21.4064 1.88177 20.6732Z" stroke="#7F7F7F" stroke-width="2" stroke-linejoin="round"/>
<path d="M12.9409 9.61376C15.2313 9.61376 17.0881 7.75699 17.0881 5.46655C17.0881 3.17611 15.2313 1.31934 12.9409 1.31934C10.6504 1.31934 8.79367 3.17611 8.79367 5.46655C8.79367 7.75699 10.6504 9.61376 12.9409 9.61376Z" stroke="#7F7F7F" stroke-width="2"/>
</svg>
