<svg width="31" height="28" viewBox="0 0 31 28" fill="none" xmlns="http://www.w3.org/2000/svg">
<path fill-rule="evenodd" clip-rule="evenodd" d="M9.33177 3.97378C9.70087 2.16284 11.3128 0.881348 13.1583 0.881348H17.676C19.5215 0.881348 21.132 2.16284 21.5024 3.97378C21.5433 4.1732 21.65 4.35307 21.8055 4.48447C21.961 4.61586 22.1561 4.69113 22.3595 4.69816H22.4052C24.3447 4.78387 25.8349 5.02165 27.0791 5.83865C27.8629 6.3529 28.5375 7.01369 29.0628 7.78645C29.7167 8.74584 30.0042 9.849 30.1425 11.1816C30.2779 12.4852 30.2779 14.1179 30.2779 16.1859V16.3034C30.2779 18.3715 30.2779 20.0055 30.1425 21.3077C30.0042 22.6404 29.7167 23.7435 29.0628 24.7043C28.5358 25.4775 27.8618 26.1394 27.0791 26.6521C26.1072 27.2894 24.9916 27.5714 23.6396 27.7055C22.3153 27.8382 20.655 27.8382 18.5455 27.8382H12.2887C10.1792 27.8382 8.51892 27.8382 7.19457 27.7055C5.84258 27.5714 4.72698 27.2908 3.75516 26.6521C2.97231 26.139 2.29823 25.4766 1.77141 24.7029C1.11753 23.7435 0.82999 22.6404 0.69175 21.3077C0.556274 20.0055 0.556274 18.3715 0.556274 16.3034V16.1859C0.556274 14.1179 0.556274 12.4852 0.69175 11.1816C0.82999 9.849 1.11753 8.74584 1.77141 7.78645C2.29823 7.01274 2.97231 6.3504 3.75516 5.83726C4.99932 5.02165 6.48955 4.78387 8.42906 4.69955L8.45256 4.69816H8.47468C8.67811 4.69113 8.87326 4.61586 9.02873 4.48447C9.18419 4.35307 9.29093 4.1732 9.33177 3.97378ZM13.1583 2.95495C12.2735 2.95495 11.5312 3.56736 11.3639 4.38712C11.0943 5.71423 9.91653 6.75933 8.49956 6.77177C6.63608 6.85471 5.63799 7.08281 4.89149 7.57218C4.33698 7.93606 3.85931 8.40527 3.48559 8.9532C3.10404 9.51307 2.87456 10.2305 2.75291 11.3959C2.63126 12.5792 2.62988 14.1054 2.62988 16.2454C2.62988 18.3853 2.62988 19.9101 2.7543 21.0935C2.87456 22.2588 3.10404 22.9763 3.48697 23.5376C3.85745 24.0822 4.33438 24.5522 4.89287 24.9186C5.46934 25.296 6.20754 25.5241 7.40055 25.643C8.60877 25.7632 10.1654 25.7646 12.3454 25.7646H18.4888C20.6675 25.7646 22.2241 25.7646 23.4337 25.643C24.6267 25.5241 25.3649 25.2974 25.9413 24.9186C26.4998 24.5522 26.9781 24.0822 27.3486 23.5362C27.7302 22.9763 27.9597 22.2588 28.0813 21.0935C28.203 19.9101 28.2043 18.384 28.2043 16.2454C28.2043 14.1054 28.2043 12.5792 28.0799 11.3959C27.9597 10.2305 27.7302 9.51307 27.3472 8.9532C26.9739 8.40454 26.4962 7.9348 25.9413 7.5708C25.1976 7.08281 24.1995 6.85471 22.3333 6.77177C20.9177 6.75794 19.7399 5.71561 19.4703 4.38712C19.3818 3.97831 19.155 3.61255 18.8281 3.35162C18.5012 3.09069 18.0942 2.95058 17.676 2.95495H13.1583ZM15.4171 12.6318C14.5922 12.6318 13.801 12.9595 13.2177 13.5428C12.6344 14.1261 12.3067 14.9172 12.3067 15.7422C12.3067 16.5671 12.6344 17.3583 13.2177 17.9416C13.801 18.5249 14.5922 18.8526 15.4171 18.8526C16.242 18.8526 17.0332 18.5249 17.6165 17.9416C18.1998 17.3583 18.5275 16.5671 18.5275 15.7422C18.5275 14.9172 18.1998 14.1261 17.6165 13.5428C17.0332 12.9595 16.242 12.6318 15.4171 12.6318ZM10.2331 15.7422C10.2331 14.3673 10.7793 13.0487 11.7515 12.0765C12.7236 11.1043 14.0422 10.5582 15.4171 10.5582C16.792 10.5582 18.1106 11.1043 19.0828 12.0765C20.0549 13.0487 20.6011 14.3673 20.6011 15.7422C20.6011 17.1171 20.0549 18.4356 19.0828 19.4078C18.1106 20.38 16.792 20.9262 15.4171 20.9262C14.0422 20.9262 12.7236 20.38 11.7515 19.4078C10.7793 18.4356 10.2331 17.1171 10.2331 15.7422ZM22.6747 11.595C22.6747 11.32 22.784 11.0563 22.9784 10.8618C23.1728 10.6674 23.4366 10.5582 23.7115 10.5582H25.0939C25.3689 10.5582 25.6326 10.6674 25.8271 10.8618C26.0215 11.0563 26.1307 11.32 26.1307 11.595C26.1307 11.8699 26.0215 12.1337 25.8271 12.3281C25.6326 12.5225 25.3689 12.6318 25.0939 12.6318H23.7115C23.4366 12.6318 23.1728 12.5225 22.9784 12.3281C22.784 12.1337 22.6747 11.8699 22.6747 11.595Z" fill="#7F7F7F"/>
</svg>
